<svg xmlns="http://www.w3.org/2000/svg" xmlns:xlink="http://www.w3.org/1999/xlink" width="354" zoomAndPan="magnify" viewBox="62.25 138.75 265.5 95.25" height="127" preserveAspectRatio="xMidYMid meet" version="1.0" style=""><defs><g/><clipPath id="6999deb121"><rect x="0" width="210" y="0" height="91"/></clipPath><clipPath id="8e943f4a2d"><path d="M 82 155 L 129 155 L 129 218 L 82 218 Z M 82 155 " clip-rule="nonzero"/></clipPath><clipPath id="0e74494af6"><path d="M 93.378906 220.105469 L 76.476562 169.609375 L 119.863281 155.089844 L 136.761719 205.585938 Z M 93.378906 220.105469 " clip-rule="nonzero"/></clipPath><clipPath id="5d47644b6a"><path d="M 93.378906 220.105469 L 76.476562 169.609375 L 119.863281 155.089844 L 136.761719 205.585938 Z M 93.378906 220.105469 " clip-rule="nonzero"/></clipPath><clipPath id="f766d7480f"><path d="M 93.378906 220.105469 L 76.476562 169.609375 L 119.863281 155.089844 L 136.761719 205.585938 Z M 93.378906 220.105469 " clip-rule="nonzero"/></clipPath></defs><g transform="matrix(1, 0, 0, 1, 106, 142)"><g clip-path="url(#6999deb121)"><g fill="#333333" fill-opacity="1"><g transform="translate(0.896054, 67.502288)"><g><path d="M 45.5 -62.265625 L 53.03125 -62.265625 L 53.03125 -61.453125 C 52.675781 -61.453125 52.257812 -61.289062 51.78125 -60.96875 C 51.3125 -60.644531 50.78125 -60.082031 50.1875 -59.28125 C 49.601562 -58.488281 48.984375 -57.441406 48.328125 -56.140625 C 47.679688 -54.835938 47.035156 -53.179688 46.390625 -51.171875 L 30.515625 -4.96875 L 32.1875 0 L 25.546875 0 L 8.609375 -49.40625 C 8.015625 -51.050781 7.4375 -52.613281 6.875 -54.09375 C 6.3125 -55.570312 5.773438 -56.859375 5.265625 -57.953125 C 4.765625 -59.046875 4.289062 -59.898438 3.84375 -60.515625 C 3.40625 -61.140625 3.007812 -61.453125 2.65625 -61.453125 L 2.65625 -62.265625 L 13.125 -62.265625 L 13.125 -61.453125 C 12.769531 -61.453125 12.648438 -60.640625 12.765625 -59.015625 C 12.890625 -57.390625 13.332031 -55.335938 14.09375 -52.859375 L 30.15625 -6.125 L 45.578125 -51.34375 C 47.890625 -58.082031 47.863281 -61.453125 45.5 -61.453125 Z M 45.5 -62.265625 "/></g></g></g><g fill="#333333" fill-opacity="1"><g transform="translate(56.587622, 67.502288)"><g><path d="M 2.21875 -39.546875 L 10.546875 -42.75 L 10.546875 -7.625 C 10.546875 -6.144531 10.617188 -4.960938 10.765625 -4.078125 C 10.921875 -3.191406 11.113281 -2.492188 11.34375 -1.984375 C 11.582031 -1.484375 11.820312 -1.160156 12.0625 -1.015625 C 12.300781 -0.867188 12.476562 -0.796875 12.59375 -0.796875 L 12.59375 0 L 2.3125 0 L 2.3125 -0.796875 C 2.488281 -0.796875 2.691406 -0.867188 2.921875 -1.015625 C 3.160156 -1.160156 3.382812 -1.484375 3.59375 -1.984375 C 3.800781 -2.492188 3.992188 -3.191406 4.171875 -4.078125 C 4.347656 -4.960938 4.4375 -6.144531 4.4375 -7.625 L 4.4375 -35.03125 C 4.195312 -36.625 3.867188 -37.65625 3.453125 -38.125 C 3.046875 -38.601562 2.722656 -38.84375 2.484375 -38.84375 Z M 6.828125 -49.9375 C 5.648438 -49.9375 4.660156 -50.332031 3.859375 -51.125 C 3.054688 -51.925781 2.65625 -52.914062 2.65625 -54.09375 C 2.65625 -55.28125 3.054688 -56.269531 3.859375 -57.0625 C 4.660156 -57.863281 5.648438 -58.265625 6.828125 -58.265625 C 8.015625 -58.265625 9.003906 -57.863281 9.796875 -57.0625 C 10.597656 -56.269531 11 -55.28125 11 -54.09375 C 11 -52.914062 10.597656 -51.925781 9.796875 -51.125 C 9.003906 -50.332031 8.015625 -49.9375 6.828125 -49.9375 Z M 6.828125 -49.9375 "/></g></g></g><g fill="#333333" fill-opacity="1"><g transform="translate(71.397317, 67.502288)"><g><path d="M 2.21875 -42.75 L 10.375 -42.75 L 10.375 -19.78125 C 10.726562 -22.5 11.210938 -24.953125 11.828125 -27.140625 C 12.453125 -29.328125 13.148438 -31.273438 13.921875 -32.984375 C 14.515625 -34.234375 15.191406 -35.445312 15.953125 -36.625 C 16.722656 -37.8125 17.625 -38.890625 18.65625 -39.859375 C 19.695312 -40.835938 20.820312 -41.625 22.03125 -42.21875 C 23.25 -42.8125 24.597656 -43.109375 26.078125 -43.109375 C 28.492188 -43.109375 30.457031 -42.601562 31.96875 -41.59375 C 33.476562 -40.59375 34.660156 -39.289062 35.515625 -37.6875 C 36.378906 -36.09375 36.972656 -34.289062 37.296875 -32.28125 C 37.617188 -30.269531 37.78125 -28.257812 37.78125 -26.25 L 37.78125 -7.625 C 37.78125 -6.144531 37.851562 -4.960938 38 -4.078125 C 38.144531 -3.191406 38.335938 -2.492188 38.578125 -1.984375 C 38.816406 -1.484375 39.050781 -1.160156 39.28125 -1.015625 C 39.519531 -0.867188 39.703125 -0.796875 39.828125 -0.796875 L 39.828125 0 L 29.53125 0 L 29.53125 -0.796875 C 29.644531 -0.796875 29.820312 -0.867188 30.0625 -1.015625 C 30.300781 -1.160156 30.523438 -1.484375 30.734375 -1.984375 C 30.941406 -2.492188 31.132812 -3.191406 31.3125 -4.078125 C 31.488281 -4.960938 31.578125 -6.144531 31.578125 -7.625 L 31.578125 -26.25 C 31.578125 -27.3125 31.515625 -28.597656 31.390625 -30.109375 C 31.273438 -31.617188 31.023438 -33.097656 30.640625 -34.546875 C 30.253906 -35.992188 29.691406 -37.304688 28.953125 -38.484375 C 28.210938 -39.671875 27.222656 -40.472656 25.984375 -40.890625 C 24.742188 -41.296875 23.53125 -41.273438 22.34375 -40.828125 C 21.164062 -40.390625 20.085938 -39.726562 19.109375 -38.84375 C 18.140625 -37.957031 17.269531 -36.953125 16.5 -35.828125 C 15.726562 -34.703125 15.109375 -33.640625 14.640625 -32.640625 C 13.335938 -29.796875 12.300781 -26.316406 11.53125 -22.203125 C 10.757812 -18.097656 10.375 -13.238281 10.375 -7.625 C 10.375 -6.144531 10.445312 -4.960938 10.59375 -4.078125 C 10.738281 -3.191406 10.929688 -2.492188 11.171875 -1.984375 C 11.410156 -1.484375 11.644531 -1.160156 11.875 -1.015625 C 12.113281 -0.867188 12.296875 -0.796875 12.421875 -0.796875 L 12.421875 0 L 2.21875 0 L 2.21875 -0.796875 C 2.332031 -0.796875 2.507812 -0.867188 2.75 -1.015625 C 2.988281 -1.160156 3.207031 -1.484375 3.40625 -1.984375 C 3.613281 -2.492188 3.804688 -3.191406 3.984375 -4.078125 C 4.160156 -4.960938 4.25 -6.144531 4.25 -7.625 L 4.25 -35.125 C 4.25 -36.539062 4.160156 -37.707031 3.984375 -38.625 C 3.804688 -39.539062 3.613281 -40.234375 3.40625 -40.703125 C 3.207031 -41.179688 2.988281 -41.507812 2.75 -41.6875 C 2.507812 -41.863281 2.332031 -41.953125 2.21875 -41.953125 Z M 2.21875 -42.75 "/></g></g></g><g fill="#333333" fill-opacity="1"><g transform="translate(113.432036, 67.502288)"><g><path d="M 11.171875 2.84375 C 10.523438 3.3125 10.203125 3.84375 10.203125 4.4375 C 10.203125 5.03125 10.316406 5.5625 10.546875 6.03125 C 11.316406 7.625 12.265625 9.054688 13.390625 10.328125 C 14.515625 11.597656 15.695312 12.425781 16.9375 12.8125 C 18.175781 13.195312 19.382812 12.957031 20.5625 12.09375 C 21.75 11.238281 22.847656 9.453125 23.859375 6.734375 L 26.34375 0 L 26.078125 0 L 9.40625 -38.484375 C 8.875 -39.671875 8.367188 -40.546875 7.890625 -41.109375 C 7.421875 -41.671875 6.800781 -41.953125 6.03125 -41.953125 L 6.03125 -42.75 L 17.296875 -42.75 L 17.296875 -41.953125 C 15.640625 -41.953125 15.285156 -40.882812 16.234375 -38.75 L 29.4375 -8.15625 L 40.53125 -37.609375 C 40.882812 -38.609375 40.988281 -39.390625 40.84375 -39.953125 C 40.695312 -40.515625 40.472656 -40.941406 40.171875 -41.234375 C 39.816406 -41.585938 39.34375 -41.828125 38.75 -41.953125 L 38.75 -42.75 L 46.296875 -42.75 L 46.296875 -41.953125 C 45.285156 -41.953125 44.289062 -41.535156 43.3125 -40.703125 C 42.34375 -39.878906 41.625 -38.785156 41.15625 -37.421875 L 24.484375 6.921875 C 23.296875 10.234375 21.890625 12.742188 20.265625 14.453125 C 18.640625 16.171875 16.878906 17.117188 14.984375 17.296875 C 13.097656 17.472656 11.101562 16.894531 9 15.5625 C 6.90625 14.226562 4.820312 12.203125 2.75 9.484375 L 2.21875 8.875 L 10.640625 2.21875 Z M 11.171875 2.84375 "/></g></g></g><g fill="#333333" fill-opacity="1"><g transform="translate(161.940454, 67.502288)"><g><path d="M 3.015625 -15.703125 C 2.242188 -18.597656 2.066406 -21.460938 2.484375 -24.296875 C 2.898438 -27.140625 3.800781 -29.753906 5.1875 -32.140625 C 6.570312 -34.535156 8.390625 -36.617188 10.640625 -38.390625 C 12.890625 -40.171875 15.460938 -41.445312 18.359375 -42.21875 C 21.429688 -43.039062 24.382812 -43.226562 27.21875 -42.78125 C 30.0625 -42.34375 32.632812 -41.472656 34.9375 -40.171875 C 37.25 -38.867188 39.234375 -37.210938 40.890625 -35.203125 C 42.546875 -33.191406 43.726562 -31.003906 44.4375 -28.640625 C 42.300781 -28.640625 40.003906 -28.550781 37.546875 -28.375 C 35.097656 -28.195312 32.867188 -27.875 30.859375 -27.40625 C 32.515625 -27.46875 34.035156 -27.1875 35.421875 -26.5625 C 36.816406 -25.9375 38.015625 -25.09375 39.015625 -24.03125 C 40.023438 -22.96875 40.820312 -21.726562 41.40625 -20.3125 C 42 -18.894531 42.359375 -17.414062 42.484375 -15.875 C 42.722656 -12.675781 42.054688 -9.910156 40.484375 -7.578125 C 38.921875 -5.242188 36.851562 -3.410156 34.28125 -2.078125 C 31.707031 -0.753906 28.820312 0.0078125 25.625 0.21875 C 22.4375 0.425781 19.347656 0 16.359375 -1.0625 C 13.378906 -2.125 10.675781 -3.851562 8.25 -6.25 C 5.820312 -8.644531 4.078125 -11.796875 3.015625 -15.703125 Z M 8.25 -22.078125 C 8.425781 -20.367188 8.691406 -18.773438 9.046875 -17.296875 C 10.171875 -13.035156 11.882812 -9.691406 14.1875 -7.265625 C 16.5 -4.847656 19 -3.191406 21.6875 -2.296875 C 24.375 -1.410156 27.078125 -1.21875 29.796875 -1.71875 C 32.515625 -2.226562 34.878906 -3.25 36.890625 -4.78125 C 38.898438 -6.320312 40.363281 -8.289062 41.28125 -10.6875 C 42.195312 -13.082031 42.210938 -15.757812 41.328125 -18.71875 C 40.859375 -20.3125 40.085938 -21.757812 39.015625 -23.0625 C 37.953125 -24.363281 36.648438 -25.320312 35.109375 -25.9375 C 33.578125 -26.5625 31.835938 -26.796875 29.890625 -26.640625 C 27.941406 -26.492188 25.867188 -25.773438 23.671875 -24.484375 C 21.546875 -23.234375 19.460938 -22.359375 17.421875 -21.859375 C 15.390625 -21.359375 13.515625 -21.164062 11.796875 -21.28125 C 11.140625 -21.34375 10.515625 -21.414062 9.921875 -21.5 C 9.335938 -21.59375 8.78125 -21.785156 8.25 -22.078125 Z M 37.609375 -29.09375 C 36.773438 -30.976562 35.707031 -32.789062 34.40625 -34.53125 C 33.101562 -36.28125 31.640625 -37.773438 30.015625 -39.015625 C 28.390625 -40.265625 26.601562 -41.15625 24.65625 -41.6875 C 22.707031 -42.21875 20.664062 -42.1875 18.53125 -41.59375 C 16.519531 -41.0625 14.832031 -40.144531 13.46875 -38.84375 C 12.113281 -37.539062 11.035156 -36.03125 10.234375 -34.3125 C 9.441406 -32.601562 8.882812 -30.742188 8.5625 -28.734375 C 8.238281 -26.722656 8.132812 -24.742188 8.25 -22.796875 C 9.25 -22.316406 10.429688 -22.019531 11.796875 -21.90625 C 13.453125 -21.789062 15.269531 -21.984375 17.25 -22.484375 C 19.226562 -22.984375 21.253906 -23.828125 23.328125 -25.015625 C 25.804688 -26.429688 28.285156 -27.429688 30.765625 -28.015625 C 33.253906 -28.609375 35.535156 -28.96875 37.609375 -29.09375 Z M 37.609375 -29.09375 "/></g></g></g></g></g><g clip-path="url(#8e943f4a2d)"><g clip-path="url(#0e74494af6)"><g clip-path="url(#5d47644b6a)"><g clip-path="url(#f766d7480f)"><path fill="#333333" d="M 85.980469 175.878906 C 90.613281 173.855469 96.160156 173.226562 101.082031 174.441406 C 94.28125 174.039062 92.535156 174.371094 85.980469 175.878906 Z M 109.496094 196.617188 C 110.199219 189.949219 110.316406 188.179688 109.085938 181.5 C 110.894531 186.21875 110.949219 191.789062 109.496094 196.617188 Z M 102.542969 180.835938 C 93.839844 191.4375 98.390625 186.328125 88.917969 196.191406 C 97.652344 185.675781 93.109375 190.792969 102.542969 180.835938 Z M 86.730469 198.65625 C 91.589844 200.160156 96.328125 198.847656 99.6875 196.554688 C 100.058594 197.191406 100.496094 197.730469 100.980469 198.222656 C 103.121094 196.890625 103.175781 194.90625 103.507812 192.667969 C 103.789062 190.742188 104.992188 190.585938 104.972656 192.574219 C 104.960938 193.839844 104.660156 195.523438 105.046875 196.613281 C 105.542969 196.679688 105.890625 196.617188 106.175781 196.511719 C 106.511719 197.9375 108.285156 199.285156 109.320312 200.34375 C 111.777344 197.421875 114.570312 194.804688 115.496094 191.027344 C 116.050781 191.0625 116.601562 191.027344 117.15625 190.890625 C 116.984375 188.808594 115.953125 187.386719 114.101562 185.875 C 112.929688 184.914062 114.023438 183.683594 114.984375 184.695312 C 116.535156 186.335938 118.152344 187.050781 120.097656 186.882812 C 119.921875 183.058594 120.601562 179.273438 117.730469 176.359375 C 118.21875 175.992188 118.710938 175.621094 119.203125 175.253906 C 116.09375 173.058594 112.957031 172.316406 110.765625 175.472656 C 109.652344 177.078125 108.167969 177.152344 106.570312 176.941406 C 109.789062 173.078125 114.054688 167.335938 116.996094 162.3125 C 116.710938 166.210938 117.910156 169.988281 119.570312 173.988281 C 121.15625 177.804688 122.027344 179.101562 121.808594 183.917969 C 121.539062 189.84375 118.445312 194.804688 114.449219 200.203125 C 109.742188 206.5625 107.605469 206.8125 99.855469 210.292969 C 97.972656 211.136719 93.214844 213.425781 94.648438 216.253906 C 96.113281 219.144531 100.613281 215.054688 98.5625 214.066406 C 98.011719 213.800781 97.457031 214.125 97.960938 214.148438 C 99.222656 214.210938 98.636719 215.570312 97.996094 216.128906 C 97.105469 216.910156 95.734375 217.320312 95.050781 216.269531 C 93.410156 213.738281 98.472656 211.425781 100.054688 210.742188 C 107.953125 207.332031 110.644531 206.777344 115.019531 200.625 C 119.804688 193.902344 123.570312 188.097656 122.539062 180.300781 C 125.238281 185.902344 128.523438 192.933594 128.289062 195.625 C 127.875 200.421875 121.703125 199.6875 121.285156 195.289062 C 121.128906 193.65625 121.945312 192.742188 122.949219 192.40625 C 124.339844 191.9375 126.335938 192.96875 126.53125 194.917969 C 126.792969 197.582031 123.328125 197.40625 123.078125 195.257812 C 122.984375 194.4375 123.820312 193.800781 124.511719 194.542969 C 124.640625 194.683594 124.746094 194.761719 124.628906 194.46875 C 124.503906 194.164062 124.148438 193.917969 123.683594 193.988281 C 123.042969 194.082031 122.671875 194.730469 122.789062 195.429688 C 122.960938 196.445312 123.972656 197.589844 125.414062 197.21875 C 127.253906 196.742188 127.269531 194.648438 126.277344 193.183594 C 125.472656 191.996094 123.945312 191.257812 122.382812 192.070312 C 118.375 194.152344 122.300781 201.539062 126.8125 199.160156 C 128.203125 198.421875 128.796875 197.207031 128.933594 195.855469 C 129.097656 194.207031 128.554688 192.609375 128.054688 191.058594 C 126.085938 184.976562 122.859375 179.597656 120.4375 173.632812 C 118.476562 168.792969 117.144531 164.222656 118.589844 159.390625 C 119.257812 158.058594 119.777344 156.824219 120.085938 155.757812 L 118.746094 155.492188 C 117.328125 160.664062 110.429688 170.65625 105.929688 176.398438 C 105.519531 174.835938 105.40625 173.347656 106.875 172.042969 C 109.753906 169.488281 108.628906 166.476562 106.066406 163.667969 C 105.757812 164.199219 105.453125 164.730469 105.144531 165.257812 C 101.890625 162.773438 98.207031 163.90625 94.378906 164.199219 C 94.449219 166.144531 95.359375 167.660156 97.179688 168.996094 C 98.304688 169.820312 97.214844 171.054688 96.117188 170.011719 C 94.382812 168.363281 92.839844 167.515625 90.75 167.601562 C 90.679688 168.167969 90.714844 168.714844 90.8125 169.257812 C 87.167969 170.636719 84.902344 173.71875 82.292969 176.507812 C 83.472656 177.402344 85.03125 178.992188 86.492188 179.152344 C 86.421875 179.445312 86.402344 179.800781 86.527344 180.28125 C 87.664062 180.53125 89.300781 180.027344 90.558594 179.859375 C 92.539062 179.597656 92.527344 180.808594 90.644531 181.324219 C 88.453125 181.925781 86.488281 182.21875 85.421875 184.5 C 85.972656 184.921875 86.5625 185.289062 87.242188 185.578125 C 85.367188 189.183594 84.640625 194.03125 86.730469 198.65625 " fill-opacity="1" fill-rule="evenodd"/></g></g></g></g></svg>
