<?xml version="1.0" standalone="no"?>
<!DOCTYPE svg PUBLIC "-//W3C//DTD SVG 20010904//EN"
 "http://www.w3.org/TR/2001/REC-SVG-20010904/DTD/svg10.dtd">
<svg version="1.0" xmlns="http://www.w3.org/2000/svg"
 width="500.000000pt" height="500.000000pt" viewBox="0 0 500.000000 500.000000"
 preserveAspectRatio="xMidYMid meet">

<g transform="translate(0.000000,500.000000) scale(0.100000,-0.100000)"
fill="#000000" stroke="none">
<path d="M1478 3013 c10 -16 31 -59 45 -97 l26 -69 -57 -86 c-78 -117 -76
-115 -64 -107 6 4 37 43 68 87 l57 81 24 -78 c13 -44 30 -97 36 -119 6 -22 15
-43 20 -46 9 -7 57 -133 57 -151 0 -9 -3 -9 -12 0 -7 7 -16 12 -22 12 -5 0 -1
-6 9 -14 11 -8 23 -12 26 -10 12 7 18 -40 7 -53 -6 -7 -20 -14 -32 -14 -18 -1
-18 -2 -2 -6 10 -3 23 0 29 6 19 19 23 13 47 -64 l24 -75 43 0 c42 0 44 1 36
23 -4 12 -7 34 -7 49 1 15 -2 25 -6 23 -12 -7 -231 645 -233 692 l-2 43 -68 0
-68 0 19 -27z"/>
<path d="M2044 3024 c22 -22 21 -33 -24 -169 -22 -65 -38 -121 -36 -123 2 -2
19 41 36 95 39 118 54 149 88 186 l26 27 -53 0 c-48 0 -51 -1 -37 -16z"/>
<path d="M2238 2979 c-10 -5 -23 -19 -29 -30 -24 -45 52 -94 89 -57 20 20 14
65 -10 82 -26 19 -27 19 -50 5z"/>
<path d="M1288 2813 c-34 -5 -34 -12 -7 -47 26 -33 19 -44 -13 -22 -12 9 -28
16 -34 16 -12 0 -55 -33 -108 -84 -29 -27 -29 -29 -10 -42 10 -7 24 -18 31
-24 7 -5 28 -10 48 -10 22 0 34 -4 30 -10 -3 -5 -14 -10 -23 -10 -10 0 -28 -7
-40 -16 -17 -12 -20 -19 -12 -29 7 -9 7 -25 -1 -57 -15 -55 -5 -114 22 -129
24 -12 90 -4 131 17 17 9 29 10 33 4 13 -21 25 -9 37 35 14 52 28 59 28 15 0
-19 10 -42 27 -60 25 -29 27 -29 46 -13 10 10 30 37 44 60 14 24 29 43 34 43
17 0 9 29 -17 59 -27 33 -15 42 20 16 34 -26 46 -19 46 28 -1 23 -7 53 -14 66
-8 14 -12 30 -9 37 6 16 -47 33 -72 24 -12 -4 -27 -15 -34 -24 -17 -21 -50
-21 -58 1 -4 9 3 33 16 55 19 34 20 42 9 65 -7 15 -22 28 -33 29 -11 1 -36 4
-55 7 -19 3 -47 3 -62 0z m27 -138 c-23 -8 -149 -12 -130 -4 11 4 47 8 80 8
33 -1 56 -2 50 -4z m16 -132 c-6 -10 -36 -45 -66 -78 -67 -71 -52 -43 20 38
53 60 62 68 46 40z m136 -40 c-3 -10 -5 -4 -5 12 0 17 2 24 5 18 2 -7 2 -21 0
-30z m0 -80 c-3 -10 -5 -4 -5 12 0 17 2 24 5 18 2 -7 2 -21 0 -30z"/>
<path d="M2254 2758 l-52 -20 15 -29 c20 -40 15 -457 -6 -482 -12 -16 -8 -17
53 -17 64 0 76 6 56 26 -6 6 -11 118 -12 275 l-3 266 -51 -19z"/>
<path d="M2406 2763 c12 -23 12 -513 0 -535 -7 -16 -2 -18 59 -18 62 0 66 1
54 17 -15 18 -19 133 -7 243 4 39 3 57 -2 45 -5 -13 -9 33 -9 123 l-1 142 -51
0 c-45 0 -50 -2 -43 -17z"/>
<path d="M2639 2757 c-32 -21 -88 -92 -89 -111 0 -5 13 9 29 31 75 103 148
109 189 14 24 -54 30 -392 9 -444 l-16 -37 66 0 c58 0 64 2 57 18 -4 9 -11
109 -14 222 -7 226 -14 256 -69 303 -43 36 -112 37 -162 4z"/>
<path d="M3027 2758 c11 -13 71 -141 134 -285 62 -145 115 -263 119 -263 3 0
17 30 31 67 31 87 33 92 17 66 -13 -21 -20 -7 -106 193 -71 168 -90 220 -81
230 10 12 -1 14 -62 14 l-72 0 20 -22z"/>
<path d="M3453 2766 c9 -7 17 -22 17 -32 0 -18 2 -18 18 2 9 12 26 26 37 32
17 9 10 11 -35 11 -48 0 -53 -1 -37 -13z"/>
<path d="M3870 2771 c59 -9 99 -31 142 -79 43 -48 61 -79 53 -92 -4 -6 14 -10
44 -10 61 0 64 10 22 67 -61 84 -142 124 -245 122 -60 -2 -61 -2 -16 -8z"/>
<path d="M3745 2741 c-115 -72 -166 -216 -122 -346 23 -67 63 -114 128 -150
49 -27 63 -30 144 -30 69 0 98 5 125 19 41 21 78 53 92 79 5 10 -9 0 -31 -22
-66 -66 -160 -79 -249 -35 -57 29 -91 66 -120 135 -30 68 -35 107 -14 112 16
4 16 5 0 6 -44 3 -6 155 52 213 42 42 40 47 -5 19z"/>
<path d="M2536 2615 c-3 -9 -6 -22 -5 -28 0 -7 5 -1 10 12 5 13 8 26 5 28 -2
2 -6 -3 -10 -12z"/>
<path d="M1901 2509 c-17 -51 -29 -94 -27 -96 2 -2 18 37 35 88 17 51 29 94
27 96 -2 2 -18 -37 -35 -88z"/>
<path d="M3965 2575 c-39 -14 -40 -14 -5 -8 41 7 82 22 60 22 -8 0 -33 -7 -55
-14z"/>
<path d="M2521 2554 c0 -11 3 -14 6 -6 3 7 2 16 -1 19 -3 4 -6 -2 -5 -13z"/>
<path d="M4020 2563 c8 -3 24 -10 35 -15 20 -9 20 -9 1 6 -11 9 -27 16 -35 15
-14 0 -14 -1 -1 -6z"/>
<path d="M1621 2523 c0 -12 -4 -30 -7 -40 -5 -17 -5 -17 6 0 6 10 9 28 7 40
-4 22 -4 22 -6 0z"/>
<path d="M4111 2490 c14 -31 19 -36 19 -24 0 6 -7 19 -16 30 -14 18 -14 18 -3
-6z"/>
<path d="M3738 2493 c7 -3 16 -2 19 1 4 3 -2 6 -13 5 -11 0 -14 -3 -6 -6z"/>
<path d="M1587 2425 c-9 -19 -15 -35 -12 -35 7 0 37 61 33 66 -3 2 -12 -12
-21 -31z"/>
<path d="M3356 2425 c-9 -26 -7 -32 5 -12 6 10 9 21 6 23 -2 3 -7 -2 -11 -11z"/>
<path d="M4133 2405 c0 -22 2 -30 4 -17 2 12 2 30 0 40 -3 9 -5 -1 -4 -23z"/>
<path d="M1612 2400 c0 -14 2 -19 5 -12 2 6 2 18 0 25 -3 6 -5 1 -5 -13z"/>
<path d="M1511 2313 c-30 -38 -42 -58 -29 -45 24 22 93 112 86 112 -2 0 -28
-30 -57 -67z"/>
<path d="M3266 2185 c-9 -26 -7 -32 5 -12 6 10 9 21 6 23 -2 3 -7 -2 -11 -11z"/>
<path d="M3015 2139 c-27 -23 -52 -43 -54 -45 -10 -9 85 -94 116 -105 59 -19
117 10 152 78 18 36 12 40 -9 6 -16 -27 -26 -33 -53 -33 -50 0 -116 77 -102
120 4 11 5 20 3 20 -2 -1 -25 -19 -53 -41z"/>
</g>
</svg>
