<svg version="1.0" preserveAspectRatio="xMidYMid meet" viewBox="79.19025 143.09999656560004 234 76.499998164" zoomAndPan="magnify" xmlns:xlink="http://www.w3.org/1999/xlink" xmlns="http://www.w3.org/2000/svg" style="max-height: 500px" width="234" height="76.499998164"><defs><g/><clipPath id="b8c5647e17"><rect height="91" y="0" width="196" x="0"/></clipPath><clipPath id="531fc0eeb3"><path clip-rule="nonzero" d="M 82 155 L 129 155 L 129 218 L 82 218 Z M 82 155"/></clipPath><clipPath id="5ee69c2b4d"><path clip-rule="nonzero" d="M 93.378906 220.105469 L 76.476562 169.609375 L 119.863281 155.089844 L 136.761719 205.585938 Z M 93.378906 220.105469"/></clipPath><clipPath id="053933c242"><path clip-rule="nonzero" d="M 93.378906 220.105469 L 76.476562 169.609375 L 119.863281 155.089844 L 136.761719 205.585938 Z M 93.378906 220.105469"/></clipPath><clipPath id="dd8495e13f"><path clip-rule="nonzero" d="M 93.378906 220.105469 L 76.476562 169.609375 L 119.863281 155.089844 L 136.761719 205.585938 Z M 93.378906 220.105469"/></clipPath></defs><g transform="matrix(1, 0, 0, 1, 113, 142)"><g clip-path="url(#b8c5647e17)"><g fill-opacity="1" fill="#333333"><g transform="translate(1.379391, 67.502288)"><g><path d="M 13.125 -61.453125 C 12.945312 -61.453125 12.738281 -61.363281 12.5 -61.1875 C 12.269531 -61.007812 12.050781 -60.6875 11.84375 -60.21875 C 11.632812 -59.75 11.441406 -59.066406 11.265625 -58.171875 C 11.085938 -57.285156 11 -56.101562 11 -54.625 L 11 -7.625 C 11 -6.207031 11.085938 -5.039062 11.265625 -4.125 C 11.441406 -3.207031 11.632812 -2.507812 11.84375 -2.03125 C 12.050781 -1.5625 12.269531 -1.238281 12.5 -1.0625 C 12.738281 -0.882812 12.945312 -0.796875 13.125 -0.796875 L 13.125 0 L 2.65625 0 L 2.65625 -0.796875 C 2.78125 -0.796875 2.957031 -0.882812 3.1875 -1.0625 C 3.425781 -1.238281 3.648438 -1.5625 3.859375 -2.03125 C 4.066406 -2.507812 4.257812 -3.207031 4.4375 -4.125 C 4.613281 -5.039062 4.703125 -6.207031 4.703125 -7.625 L 4.703125 -54.625 C 4.703125 -56.101562 4.613281 -57.285156 4.4375 -58.171875 C 4.257812 -59.066406 4.066406 -59.75 3.859375 -60.21875 C 3.648438 -60.6875 3.425781 -61.007812 3.1875 -61.1875 C 2.957031 -61.363281 2.78125 -61.453125 2.65625 -61.453125 L 2.65625 -62.265625 L 13.125 -62.265625 Z M 13.125 -61.453125"/></g></g></g><g fill-opacity="1" fill="#333333"><g transform="translate(17.164572, 67.502288)"><g><path d="M 13.5625 -35.125 L 24.75 -8.078125 L 35.03125 -32.71875 C 36.21875 -35.5625 36.851562 -37.8125 36.9375 -39.46875 C 37.03125 -41.125 36.484375 -41.953125 35.296875 -41.953125 L 35.296875 -42.75 L 42.75 -42.75 L 42.75 -41.953125 C 42.394531 -41.953125 41.976562 -41.800781 41.5 -41.5 C 41.03125 -41.207031 40.5 -40.691406 39.90625 -39.953125 C 39.3125 -39.210938 38.644531 -38.175781 37.90625 -36.84375 C 37.175781 -35.519531 36.363281 -33.851562 35.46875 -31.84375 L 25.1875 -7 L 28.109375 0 L 21.46875 0 L 7.09375 -34.765625 C 6.320312 -36.535156 5.492188 -38.175781 4.609375 -39.6875 C 3.722656 -41.195312 2.925781 -41.953125 2.21875 -41.953125 L 2.21875 -42.75 L 12.5 -42.75 L 12.5 -41.953125 C 12.03125 -41.953125 11.820312 -41.460938 11.875 -40.484375 C 11.9375 -39.503906 12.5 -37.71875 13.5625 -35.125 Z M 13.5625 -35.125"/></g></g></g><g fill-opacity="1" fill="#333333"><g transform="translate(62.125748, 67.502288)"><g><path d="M 42.75 0 L 34.59375 0 L 34.59375 -25.546875 C 34.59375 -27.140625 34.515625 -28.910156 34.359375 -30.859375 C 34.210938 -32.816406 33.84375 -34.648438 33.25 -36.359375 C 32.664062 -38.078125 31.765625 -39.507812 30.546875 -40.65625 C 29.335938 -41.8125 27.671875 -42.390625 25.546875 -42.390625 C 23.410156 -42.390625 21.5625 -42.078125 20 -41.453125 C 18.4375 -40.835938 17.179688 -40.113281 16.234375 -39.28125 C 15.285156 -38.457031 14.660156 -37.628906 14.359375 -36.796875 C 14.066406 -35.972656 14.128906 -35.328125 14.546875 -34.859375 C 14.785156 -34.554688 15.179688 -34.332031 15.734375 -34.1875 C 16.296875 -34.039062 16.929688 -33.90625 17.640625 -33.78125 C 18.359375 -33.664062 19.113281 -33.546875 19.90625 -33.421875 C 20.707031 -33.304688 21.460938 -33.101562 22.171875 -32.8125 C 24.117188 -32.039062 25.671875 -30.8125 26.828125 -29.125 C 27.984375 -27.445312 28.796875 -25.570312 29.265625 -23.5 C 29.734375 -21.425781 29.910156 -19.296875 29.796875 -17.109375 C 29.679688 -14.921875 29.269531 -13.003906 28.5625 -11.359375 C 27.195312 -7.921875 25.179688 -5.078125 22.515625 -2.828125 C 19.859375 -0.585938 16.960938 0.472656 13.828125 0.359375 C 10.878906 0.234375 8.488281 -0.578125 6.65625 -2.078125 C 4.820312 -3.585938 3.5625 -5.453125 2.875 -7.671875 C 2.195312 -9.890625 2.125 -12.285156 2.65625 -14.859375 C 3.1875 -17.429688 4.320312 -19.820312 6.0625 -22.03125 C 7.8125 -24.25 10.207031 -26.125 13.25 -27.65625 C 16.300781 -29.195312 20.015625 -30.0625 24.390625 -30.25 C 24.503906 -30.300781 24.710938 -30.328125 25.015625 -30.328125 C 24.117188 -31.097656 23.082031 -31.71875 21.90625 -32.1875 C 20.84375 -32.601562 19.6875 -32.867188 18.4375 -32.984375 C 17.195312 -33.109375 16.03125 -33.140625 14.9375 -33.078125 C 13.84375 -33.015625 12.867188 -32.925781 12.015625 -32.8125 C 11.160156 -32.695312 10.613281 -32.609375 10.375 -32.546875 C 10.195312 -33.429688 10.445312 -34.476562 11.125 -35.6875 C 11.8125 -36.90625 12.816406 -38.0625 14.140625 -39.15625 C 15.472656 -40.25 17.097656 -41.164062 19.015625 -41.90625 C 20.941406 -42.644531 23.117188 -43.015625 25.546875 -43.015625 C 28.378906 -43.015625 30.769531 -42.570312 32.71875 -41.6875 C 34.675781 -40.800781 36.242188 -39.585938 37.421875 -38.046875 C 38.609375 -36.503906 39.453125 -34.65625 39.953125 -32.5 C 40.453125 -30.34375 40.703125 -28.023438 40.703125 -25.546875 L 40.703125 -7.625 C 40.703125 -6.144531 40.773438 -4.960938 40.921875 -4.078125 C 41.078125 -3.191406 41.269531 -2.492188 41.5 -1.984375 C 41.738281 -1.484375 41.972656 -1.160156 42.203125 -1.015625 C 42.441406 -0.867188 42.625 -0.796875 42.75 -0.796875 Z M 25.625 -29.625 C 23.257812 -29.625 21.023438 -29.328125 18.921875 -28.734375 C 16.828125 -28.140625 14.992188 -27.222656 13.421875 -25.984375 C 11.859375 -24.742188 10.617188 -23.175781 9.703125 -21.28125 C 8.796875 -19.394531 8.34375 -17.179688 8.34375 -14.640625 C 8.34375 -13.390625 8.472656 -12.144531 8.734375 -10.90625 C 9.003906 -9.664062 9.445312 -8.515625 10.0625 -7.453125 C 10.6875 -6.390625 11.46875 -5.472656 12.40625 -4.703125 C 13.351562 -3.929688 14.507812 -3.425781 15.875 -3.1875 C 17.289062 -2.894531 18.617188 -2.953125 19.859375 -3.359375 C 21.109375 -3.773438 22.265625 -4.382812 23.328125 -5.1875 C 24.390625 -5.988281 25.316406 -6.945312 26.109375 -8.0625 C 26.910156 -9.1875 27.550781 -10.34375 28.03125 -11.53125 C 28.5625 -12.945312 28.925781 -14.46875 29.125 -16.09375 C 29.332031 -17.71875 29.347656 -19.34375 29.171875 -20.96875 C 28.992188 -22.59375 28.609375 -24.144531 28.015625 -25.625 C 27.429688 -27.101562 26.632812 -28.4375 25.625 -29.625 Z M 25.625 -29.625"/></g></g></g><g fill-opacity="1" fill="#333333"><g transform="translate(107.086924, 67.502288)"><g><path d="M 2.21875 -42.75 L 10.375 -42.75 L 10.375 -19.78125 C 10.726562 -22.5 11.210938 -24.953125 11.828125 -27.140625 C 12.453125 -29.328125 13.148438 -31.273438 13.921875 -32.984375 C 14.515625 -34.234375 15.191406 -35.445312 15.953125 -36.625 C 16.722656 -37.8125 17.625 -38.890625 18.65625 -39.859375 C 19.695312 -40.835938 20.820312 -41.625 22.03125 -42.21875 C 23.25 -42.8125 24.597656 -43.109375 26.078125 -43.109375 C 28.492188 -43.109375 30.457031 -42.601562 31.96875 -41.59375 C 33.476562 -40.59375 34.660156 -39.289062 35.515625 -37.6875 C 36.378906 -36.09375 36.972656 -34.289062 37.296875 -32.28125 C 37.617188 -30.269531 37.78125 -28.257812 37.78125 -26.25 L 37.78125 -7.625 C 37.78125 -6.144531 37.851562 -4.960938 38 -4.078125 C 38.144531 -3.191406 38.335938 -2.492188 38.578125 -1.984375 C 38.816406 -1.484375 39.050781 -1.160156 39.28125 -1.015625 C 39.519531 -0.867188 39.703125 -0.796875 39.828125 -0.796875 L 39.828125 0 L 29.53125 0 L 29.53125 -0.796875 C 29.644531 -0.796875 29.820312 -0.867188 30.0625 -1.015625 C 30.300781 -1.160156 30.523438 -1.484375 30.734375 -1.984375 C 30.941406 -2.492188 31.132812 -3.191406 31.3125 -4.078125 C 31.488281 -4.960938 31.578125 -6.144531 31.578125 -7.625 L 31.578125 -26.25 C 31.578125 -27.3125 31.515625 -28.597656 31.390625 -30.109375 C 31.273438 -31.617188 31.023438 -33.097656 30.640625 -34.546875 C 30.253906 -35.992188 29.691406 -37.304688 28.953125 -38.484375 C 28.210938 -39.671875 27.222656 -40.472656 25.984375 -40.890625 C 24.742188 -41.296875 23.53125 -41.273438 22.34375 -40.828125 C 21.164062 -40.390625 20.085938 -39.726562 19.109375 -38.84375 C 18.140625 -37.957031 17.269531 -36.953125 16.5 -35.828125 C 15.726562 -34.703125 15.109375 -33.640625 14.640625 -32.640625 C 13.335938 -29.796875 12.300781 -26.316406 11.53125 -22.203125 C 10.757812 -18.097656 10.375 -13.238281 10.375 -7.625 C 10.375 -6.144531 10.445312 -4.960938 10.59375 -4.078125 C 10.738281 -3.191406 10.929688 -2.492188 11.171875 -1.984375 C 11.410156 -1.484375 11.644531 -1.160156 11.875 -1.015625 C 12.113281 -0.867188 12.296875 -0.796875 12.421875 -0.796875 L 12.421875 0 L 2.21875 0 L 2.21875 -0.796875 C 2.332031 -0.796875 2.507812 -0.867188 2.75 -1.015625 C 2.988281 -1.160156 3.207031 -1.484375 3.40625 -1.984375 C 3.613281 -2.492188 3.804688 -3.191406 3.984375 -4.078125 C 4.160156 -4.960938 4.25 -6.144531 4.25 -7.625 L 4.25 -35.125 C 4.25 -36.539062 4.160156 -37.707031 3.984375 -38.625 C 3.804688 -39.539062 3.613281 -40.234375 3.40625 -40.703125 C 3.207031 -41.179688 2.988281 -41.507812 2.75 -41.6875 C 2.507812 -41.863281 2.332031 -41.953125 2.21875 -41.953125 Z M 2.21875 -42.75"/></g></g></g><g fill-opacity="1" fill="#333333"><g transform="translate(149.121642, 67.502288)"><g><path d="M 42.75 0 L 34.59375 0 L 34.59375 -25.546875 C 34.59375 -27.140625 34.515625 -28.910156 34.359375 -30.859375 C 34.210938 -32.816406 33.84375 -34.648438 33.25 -36.359375 C 32.664062 -38.078125 31.765625 -39.507812 30.546875 -40.65625 C 29.335938 -41.8125 27.671875 -42.390625 25.546875 -42.390625 C 23.410156 -42.390625 21.5625 -42.078125 20 -41.453125 C 18.4375 -40.835938 17.179688 -40.113281 16.234375 -39.28125 C 15.285156 -38.457031 14.660156 -37.628906 14.359375 -36.796875 C 14.066406 -35.972656 14.128906 -35.328125 14.546875 -34.859375 C 14.785156 -34.554688 15.179688 -34.332031 15.734375 -34.1875 C 16.296875 -34.039062 16.929688 -33.90625 17.640625 -33.78125 C 18.359375 -33.664062 19.113281 -33.546875 19.90625 -33.421875 C 20.707031 -33.304688 21.460938 -33.101562 22.171875 -32.8125 C 24.117188 -32.039062 25.671875 -30.8125 26.828125 -29.125 C 27.984375 -27.445312 28.796875 -25.570312 29.265625 -23.5 C 29.734375 -21.425781 29.910156 -19.296875 29.796875 -17.109375 C 29.679688 -14.921875 29.269531 -13.003906 28.5625 -11.359375 C 27.195312 -7.921875 25.179688 -5.078125 22.515625 -2.828125 C 19.859375 -0.585938 16.960938 0.472656 13.828125 0.359375 C 10.878906 0.234375 8.488281 -0.578125 6.65625 -2.078125 C 4.820312 -3.585938 3.5625 -5.453125 2.875 -7.671875 C 2.195312 -9.890625 2.125 -12.285156 2.65625 -14.859375 C 3.1875 -17.429688 4.320312 -19.820312 6.0625 -22.03125 C 7.8125 -24.25 10.207031 -26.125 13.25 -27.65625 C 16.300781 -29.195312 20.015625 -30.0625 24.390625 -30.25 C 24.503906 -30.300781 24.710938 -30.328125 25.015625 -30.328125 C 24.117188 -31.097656 23.082031 -31.71875 21.90625 -32.1875 C 20.84375 -32.601562 19.6875 -32.867188 18.4375 -32.984375 C 17.195312 -33.109375 16.03125 -33.140625 14.9375 -33.078125 C 13.84375 -33.015625 12.867188 -32.925781 12.015625 -32.8125 C 11.160156 -32.695312 10.613281 -32.609375 10.375 -32.546875 C 10.195312 -33.429688 10.445312 -34.476562 11.125 -35.6875 C 11.8125 -36.90625 12.816406 -38.0625 14.140625 -39.15625 C 15.472656 -40.25 17.097656 -41.164062 19.015625 -41.90625 C 20.941406 -42.644531 23.117188 -43.015625 25.546875 -43.015625 C 28.378906 -43.015625 30.769531 -42.570312 32.71875 -41.6875 C 34.675781 -40.800781 36.242188 -39.585938 37.421875 -38.046875 C 38.609375 -36.503906 39.453125 -34.65625 39.953125 -32.5 C 40.453125 -30.34375 40.703125 -28.023438 40.703125 -25.546875 L 40.703125 -7.625 C 40.703125 -6.144531 40.773438 -4.960938 40.921875 -4.078125 C 41.078125 -3.191406 41.269531 -2.492188 41.5 -1.984375 C 41.738281 -1.484375 41.972656 -1.160156 42.203125 -1.015625 C 42.441406 -0.867188 42.625 -0.796875 42.75 -0.796875 Z M 25.625 -29.625 C 23.257812 -29.625 21.023438 -29.328125 18.921875 -28.734375 C 16.828125 -28.140625 14.992188 -27.222656 13.421875 -25.984375 C 11.859375 -24.742188 10.617188 -23.175781 9.703125 -21.28125 C 8.796875 -19.394531 8.34375 -17.179688 8.34375 -14.640625 C 8.34375 -13.390625 8.472656 -12.144531 8.734375 -10.90625 C 9.003906 -9.664062 9.445312 -8.515625 10.0625 -7.453125 C 10.6875 -6.390625 11.46875 -5.472656 12.40625 -4.703125 C 13.351562 -3.929688 14.507812 -3.425781 15.875 -3.1875 C 17.289062 -2.894531 18.617188 -2.953125 19.859375 -3.359375 C 21.109375 -3.773438 22.265625 -4.382812 23.328125 -5.1875 C 24.390625 -5.988281 25.316406 -6.945312 26.109375 -8.0625 C 26.910156 -9.1875 27.550781 -10.34375 28.03125 -11.53125 C 28.5625 -12.945312 28.925781 -14.46875 29.125 -16.09375 C 29.332031 -17.71875 29.347656 -19.34375 29.171875 -20.96875 C 28.992188 -22.59375 28.609375 -24.144531 28.015625 -25.625 C 27.429688 -27.101562 26.632812 -28.4375 25.625 -29.625 Z M 25.625 -29.625"/></g></g></g></g></g><g clip-path="url(#531fc0eeb3)"><g clip-path="url(#5ee69c2b4d)"><g clip-path="url(#053933c242)"><g clip-path="url(#dd8495e13f)"><path fill-rule="evenodd" fill-opacity="1" d="M 85.980469 175.878906 C 90.613281 173.855469 96.160156 173.226562 101.082031 174.441406 C 94.28125 174.039062 92.535156 174.371094 85.980469 175.878906 Z M 109.496094 196.617188 C 110.199219 189.949219 110.316406 188.179688 109.085938 181.5 C 110.894531 186.21875 110.949219 191.789062 109.496094 196.617188 Z M 102.542969 180.835938 C 93.839844 191.4375 98.390625 186.328125 88.917969 196.191406 C 97.652344 185.675781 93.109375 190.792969 102.542969 180.835938 Z M 86.730469 198.65625 C 91.589844 200.160156 96.328125 198.847656 99.6875 196.554688 C 100.058594 197.191406 100.496094 197.730469 100.980469 198.222656 C 103.121094 196.890625 103.175781 194.90625 103.507812 192.667969 C 103.789062 190.742188 104.992188 190.585938 104.972656 192.574219 C 104.960938 193.839844 104.660156 195.523438 105.046875 196.613281 C 105.542969 196.679688 105.890625 196.617188 106.175781 196.511719 C 106.511719 197.9375 108.285156 199.285156 109.320312 200.34375 C 111.777344 197.421875 114.570312 194.804688 115.496094 191.027344 C 116.050781 191.0625 116.601562 191.027344 117.15625 190.890625 C 116.984375 188.808594 115.953125 187.386719 114.101562 185.875 C 112.929688 184.914062 114.023438 183.683594 114.984375 184.695312 C 116.535156 186.335938 118.152344 187.050781 120.097656 186.882812 C 119.921875 183.058594 120.601562 179.273438 117.730469 176.359375 C 118.21875 175.992188 118.710938 175.621094 119.203125 175.253906 C 116.09375 173.058594 112.957031 172.316406 110.765625 175.472656 C 109.652344 177.078125 108.167969 177.152344 106.570312 176.941406 C 109.789062 173.078125 114.054688 167.335938 116.996094 162.3125 C 116.710938 166.210938 117.910156 169.988281 119.570312 173.988281 C 121.15625 177.804688 122.027344 179.101562 121.808594 183.917969 C 121.539062 189.84375 118.445312 194.804688 114.449219 200.203125 C 109.742188 206.5625 107.605469 206.8125 99.855469 210.292969 C 97.972656 211.136719 93.214844 213.425781 94.648438 216.253906 C 96.113281 219.144531 100.613281 215.054688 98.5625 214.066406 C 98.011719 213.800781 97.457031 214.125 97.960938 214.148438 C 99.222656 214.210938 98.636719 215.570312 97.996094 216.128906 C 97.105469 216.910156 95.734375 217.320312 95.050781 216.269531 C 93.410156 213.738281 98.472656 211.425781 100.054688 210.742188 C 107.953125 207.332031 110.644531 206.777344 115.019531 200.625 C 119.804688 193.902344 123.570312 188.097656 122.539062 180.300781 C 125.238281 185.902344 128.523438 192.933594 128.289062 195.625 C 127.875 200.421875 121.703125 199.6875 121.285156 195.289062 C 121.128906 193.65625 121.945312 192.742188 122.949219 192.40625 C 124.339844 191.9375 126.335938 192.96875 126.53125 194.917969 C 126.792969 197.582031 123.328125 197.40625 123.078125 195.257812 C 122.984375 194.4375 123.820312 193.800781 124.511719 194.542969 C 124.640625 194.683594 124.746094 194.761719 124.628906 194.46875 C 124.503906 194.164062 124.148438 193.917969 123.683594 193.988281 C 123.042969 194.082031 122.671875 194.730469 122.789062 195.429688 C 122.960938 196.445312 123.972656 197.589844 125.414062 197.21875 C 127.253906 196.742188 127.269531 194.648438 126.277344 193.183594 C 125.472656 191.996094 123.945312 191.257812 122.382812 192.070312 C 118.375 194.152344 122.300781 201.539062 126.8125 199.160156 C 128.203125 198.421875 128.796875 197.207031 128.933594 195.855469 C 129.097656 194.207031 128.554688 192.609375 128.054688 191.058594 C 126.085938 184.976562 122.859375 179.597656 120.4375 173.632812 C 118.476562 168.792969 117.144531 164.222656 118.589844 159.390625 C 119.257812 158.058594 119.777344 156.824219 120.085938 155.757812 L 118.746094 155.492188 C 117.328125 160.664062 110.429688 170.65625 105.929688 176.398438 C 105.519531 174.835938 105.40625 173.347656 106.875 172.042969 C 109.753906 169.488281 108.628906 166.476562 106.066406 163.667969 C 105.757812 164.199219 105.453125 164.730469 105.144531 165.257812 C 101.890625 162.773438 98.207031 163.90625 94.378906 164.199219 C 94.449219 166.144531 95.359375 167.660156 97.179688 168.996094 C 98.304688 169.820312 97.214844 171.054688 96.117188 170.011719 C 94.382812 168.363281 92.839844 167.515625 90.75 167.601562 C 90.679688 168.167969 90.714844 168.714844 90.8125 169.257812 C 87.167969 170.636719 84.902344 173.71875 82.292969 176.507812 C 83.472656 177.402344 85.03125 178.992188 86.492188 179.152344 C 86.421875 179.445312 86.402344 179.800781 86.527344 180.28125 C 87.664062 180.53125 89.300781 180.027344 90.558594 179.859375 C 92.539062 179.597656 92.527344 180.808594 90.644531 181.324219 C 88.453125 181.925781 86.488281 182.21875 85.421875 184.5 C 85.972656 184.921875 86.5625 185.289062 87.242188 185.578125 C 85.367188 189.183594 84.640625 194.03125 86.730469 198.65625" fill="#333333"/></g></g></g></g></svg>